<svg xmlns="http://www.w3.org/2000/svg" xmlns:xlink="http://www.w3.org/1999/xlink" width="774.18604pt" height="203.06174pt" fill-rule="evenodd" viewBox="0 0 774.18603 203.06173"><defs><linearGradient xlink:href="#a" id="f" x1="473.93301" x2="611.01898" y1="217.69501" y2="167.8" gradientUnits="userSpaceOnUse"/></defs><path d="M315.632 296.365h40.192v17.267h-60.389v-98.865h59.107l-2.559 16.518h-36.64v22.41h31.093v16.6h-30.804zm127.354-13.1c0 19.208-13.357 30.367-33.697 30.367h-38.915v-98.865h39.554c17.119 0 28.634 10.72 28.634 24.755 0 8.031-3.432 14.656-9.627 19.23 7.638 4.467 14.051 12.602 14.051 24.513zm-52.977-28.605h22.014c3.822-2.922 5.994-7.237 5.994-12.27 0-6.544-3.673-11.83-12.091-11.83h-15.917zm31.423 28.615c0-8.715-6.218-13.273-13.796-13.273h-17.343v27.063h17.355c7.624 0 13.784-5.065 13.784-13.79zM282.99 218.127l-20.411-6.732c-9.949 28.179-34.144 48.467-34.144 48.467v-45.095h-20.456v98.865h20.456v-51.638l32.614 51.638h25.783l-36.403-53.063s23.146-15.042 32.561-42.442z" style="fill:#004f8b;stroke:none" transform="matrix(1 0 0 1 -207.979 -125.845)"/><g transform="matrix(1 0 0 1 -207.979 -125.845)"><defs><linearGradient id="b" x1="511.40701" x2="564.26001" y1="247.662" y2="228.425" gradientUnits="userSpaceOnUse"><stop offset="0" style="stop-color:#ecf8fc"/><stop offset="0.0170064" style="stop-color:#ecf8fc"/><stop offset="0.508503" style="stop-color:#00ace4"/><stop offset="1" style="stop-color:#0074ae"/></linearGradient></defs><path d="m554.997 234.794 7.157-12.155c-26.981 12.608-40.611 20.851-48.641 28.013 1.96.903 4.022 1.839 6.168 2.796 7.099-4.796 18.127-10.395 35.316-18.654z" style="fill:url(#b);stroke:none"/><defs><linearGradient id="c" x1="466.099" x2="626.72998" y1="206.405" y2="147.939" gradientUnits="userSpaceOnUse"><stop offset="0" style="stop-color:#ecf8fc"/><stop offset="0.00803863" style="stop-color:#ecf8fc"/><stop offset="0.50402" style="stop-color:#00ace4"/><stop offset="1" style="stop-color:#0074ae"/></linearGradient></defs><path d="m609.968 140.723 8.72-14.878c-95.035 37.454-148.223 88.289-144.35 99.18.383 1.039 1.098 2.191 2.207 3.474 4.097-13.565 51.171-54.465 133.423-87.776z" style="fill:url(#c);stroke:none"/><defs><linearGradient id="d" x1="497.94601" x2="579.80798" y1="237.97" y2="208.175" gradientUnits="userSpaceOnUse"><stop offset="0" style="stop-color:#ecf8fc"/><stop offset="0.0111156" style="stop-color:#ecf8fc"/><stop offset="0.505556" style="stop-color:#00ace4"/><stop offset="0.999996" style="stop-color:#0074ae"/><stop offset="1" style="stop-color:#0074ae"/></linearGradient></defs><path d="m568.746 211.291 7.528-12.826c-43.238 19.678-64.709 35.224-74.794 46.383 1.79.915 3.702 1.855 5.719 2.832 9.897-9.177 28.603-21.043 61.547-36.389z" style="fill:url(#d);stroke:none"/><defs><linearGradient id="e" x1="485.14801" x2="595.38599" y1="228.03101" y2="187.908" gradientUnits="userSpaceOnUse"><stop offset="0" style="stop-color:#ecf8fc"/><stop offset="0.0088456" style="stop-color:#ecf8fc"/><stop offset="0.504423" style="stop-color:#00ace4"/><stop offset="1" style="stop-color:#0074ae"/><stop offset="1" style="stop-color:#0074ae"/></linearGradient></defs><path d="m582.479 187.763 7.933-13.52c-59.969 26.096-89.538 51.075-100.29 64.419 1.634.967 3.408 1.976 5.349 3.034 11.501-12.127 37.896-31.891 87.008-53.933z" style="fill:url(#e);stroke:none"/><defs><linearGradient id="a" x1="473.93301" x2="611.01898" y1="217.69501" y2="167.8" gradientUnits="userSpaceOnUse"><stop offset="0" style="stop-color:#ecf8fc"/><stop offset="0.00786218" style="stop-color:#ecf8fc"/><stop offset="0.503931" style="stop-color:#00ace4"/><stop offset="1" style="stop-color:#0074ae"/><stop offset="1" style="stop-color:#0074ae"/></linearGradient></defs><path d="m596.231 164.259 8.32-14.23c-76.389 31.593-115.829 67.377-124.15 82.082a62.896 62.896 0 0 0 4.616 3.355c10.157-14.028 45.609-43.439 111.214-71.207z" style="fill:url(#f);stroke:none"/><defs><linearGradient id="g" x1="468.17599" x2="660.55499" y1="311.97601" y2="241.95599" gradientUnits="userSpaceOnUse"><stop offset="0" style="stop-color:#e31647"/><stop offset="0.173509" style="stop-color:#e31647"/><stop offset="0.34722" style="stop-color:#9b2c45"/><stop offset="0.868353" style="stop-color:#e31647"/><stop offset="1" style="stop-color:#e31647"/></linearGradient></defs><path d="M588.398 326.041c-6.471 1.273-12.908 2.195-19.218 2.634-55.703-38.13-79.365-61.124-83.775-73.221l-1.837-5.082.026-.004c4.907 11.287 36.091 36.55 104.804 75.673zM479.04 237.849l-.036.009 1.996 5.466c4.252 11.674 35.631 37.061 117.527 80.452 7.2-1.8 14.362-3.964 21.373-6.348-101.001-43.926-135.938-68.674-140.86-79.579Zm14.066 38.654-.025.011 1.487 4.089c1.928 5.299 5.248 12.526 8.958 19.709 6.463 10.367 14.761 17.467 24.31 21.995-17.254-19.389-30.926-36.405-34.73-45.804zm-4.823-13.248-.03.005 1.676 4.613c4.314 11.844 18.257 29.186 49.659 58.614 5.7 1.447 11.696 2.221 17.891 2.42-40.558-31.868-64.505-54.471-69.196-65.652zm-13.945-38.23 2.351 6.461c4.038 11.096 41.123 35.289 153.574 82.228 8.484-3.19 16.605-6.576 24.13-9.888-141.431-47.796-176.398-68.725-180.055-78.801Z" style="fill:url(#g);stroke:none"/></g><path d="M735.727 286.071h-24.821v-13.338l.311-.077c9.071-2.093 15.41-10.079 15.41-19.406 0-10.991-8.936-19.928-19.93-19.928-10.99 0-19.926 8.937-19.926 19.928 0 9.327 6.335 17.313 15.414 19.406l.296.077v13.338H685.44v7.768h50.951c7.005 0 7.755-6.335 7.755-9.064v-50.681h-8.419v51.977zm-41.353-32.821c0-6.79 5.524-12.322 12.323-12.322 6.794 0 12.313 5.532 12.313 12.322 0 6.797-5.519 12.321-12.313 12.321-6.799 0-12.323-5.524-12.323-12.321zM816.883 236.484c-.818 1.064-.764 2.598-.757 2.637v46.95h-41.931v-9.534h36.185v-7.922h-18.718v-4.765l.262-.084c6.284-1.966 10.497-7.711 10.497-14.291 0-2.193-.476-4.329-1.42-6.339l-.257-.557h9.636v-7.915h-18.718v-5.026h-8.436v5.026h-18.365v7.915h9.279l-.248.557a14.685 14.685 0 0 0-1.435 6.339 14.92 14.92 0 0 0 10.5 14.291l.269.084v4.765h-17.458v16.16c0 2.729.757 9.064 7.759 9.064h43.266c6.999 0 7.758-6.343 7.758-9.064v-41.708h7.109v-7.919h-12.341c-.048 0-1.445.063-2.436 1.336zm-37.494 12.991c0-4.442 3.616-8.062 8.053-8.062 4.447 0 8.065 3.62 8.065 8.062 0 4.432-3.618 8.055-8.065 8.055-4.437 0-8.053-3.623-8.053-8.055zM951.227 250.535a15.33 15.33 0 0 0-2.191-7.891h.709l-.016-.024h5.176v-7.906h-14.88v-5.036H931.6v5.036h-14.887v7.906h5.172l-.005.024h.679a15.33 15.33 0 0 0-2.191 7.891c0 8.51 6.916 15.437 15.425 15.437 8.517 0 15.434-6.927 15.434-15.437zm-15.434 8.392c-4.617 0-8.386-3.767-8.386-8.392 0-4.627 3.769-8.389 8.386-8.389 4.627 0 8.394 3.762 8.394 8.389 0 4.625-3.767 8.392-8.394 8.392z" style="fill:#004f8b;stroke:none" transform="matrix(1 0 0 1 -207.979 -125.845)"/><path d="M981.394 235.134c-.986-1.274-2.378-1.342-2.43-1.342h-17.476c-.05 0-1.446.068-2.435 1.342-.83 1.064-.765 2.594-.765 2.63v23.562c-9.95.194-17.983 8.341-17.983 18.338 0 10.122 8.239 18.358 18.357 18.358 10.127 0 18.361-8.236 18.361-18.358 0-7.236-4.213-13.48-10.296-16.472v-21.483h6.998v25.809c.681 0 7.756 0 8.428.007l.011-29.782s.002-.032.002-.084c0-.347-.056-1.614-.772-2.525zm-22.732 54.965c-5.746 0-10.433-4.682-10.433-10.435 0-5.764 4.687-10.439 10.433-10.439 5.752 0 10.444 4.675 10.444 10.439 0 5.753-4.692 10.435-10.444 10.435zM876.495 229.029c-9.701 0-17.593 7.905-17.593 17.616 0 9.701 7.892 17.588 17.593 17.588 9.707 0 17.609-7.887 17.609-17.588 0-9.711-7.902-17.616-17.609-17.616zm0 27.48c-5.436 0-9.867-4.435-9.867-9.864 0-5.444 4.431-9.871 9.867-9.871 5.44 0 9.866 4.427 9.866 9.871 0 5.429-4.426 9.864-9.866 9.864zM846.013 275.749v8.962c0 2.724.76 9.061 7.765 9.061h53.201v-7.769h-52.541v-10.645h52.558v-7.912h-60.995c0 .701.012 8.303.012 8.303z" style="fill:#004f8b;stroke:none" transform="matrix(1 0 0 1 -207.979 -125.845)"/></svg>