<svg xmlns="http://www.w3.org/2000/svg" width="2574pt" height="852pt" version="1.0" viewBox="0 0 2574 852"><path fill="#ED1C24FF" stroke="#ED1C24FF" d="M472.748 264.592c1.085 2.097 3.117 10.231 3.726 14.921.214 1.643.47 2.987.57 2.987s.312 1.35.471 3 .594 5.025.968 7.5c2.495 16.517 2.028 48.097-.975 66-.231 1.375-.629 3.85-.884 5.5-1.274 8.234-2.225 13.316-2.576 13.75-.294.365-1.288 4.556-2.445 10.305-.227 1.13-1.058 3.605-1.847 5.5s-1.244 4.008-1.011 4.695c.232.688-.066 1.25-.662 1.25-.595 0-1.01.338-.922.75.089.413-.361 2.017-1 3.565-.638 1.548-1.161 3.28-1.161 3.849s-.628 2.452-1.396 4.185-2.434 5.851-3.703 9.151-2.838 6.675-3.487 7.5c-1.755 2.229-5.414 9.742-5.414 11.116 0 .657-1.024 2.588-2.276 4.29s-3.165 4.812-4.25 6.911c-1.086 2.1-2.779 4.688-3.763 5.75S439.182 459 439.5 459c.612 0 .152.613-4.247 5.657a204 204 0 0 0-5.253 6.327c-2.308 2.926-14.319 15.105-20.758 21.047-1.508 1.392-4.317 3.62-6.242 4.952s-3.725 2.678-4 2.992c-.836.955-5.928 4.054-6.739 4.102-.419.024-1.81 1.029-3.092 2.234-1.281 1.204-2.509 2.097-2.729 1.985-.704-.361-11.928 5.008-12.273 5.872-.184.457-1.331.832-2.55.832s-2.757.54-3.417 1.2-1.2.83-1.2.378c0-.453-.675-.263-1.5.422s-1.5.953-1.5.597c0-.357-1.314.031-2.921.862s-4.869 1.751-7.25 2.046-5.679.759-7.329 1.033-7.05.757-12 1.077c-7.81.503-12.326.095-22.129-1.999-2.779-.593-11.319-3.41-13.871-4.574-1.1-.502-4.025-1.831-6.5-2.954-5.136-2.33-10.28-5.246-12.489-7.079-.831-.69-1.525-.861-1.543-.381-.017.479-.692-.002-1.5-1.069-.807-1.068-1.475-1.518-1.483-1-.009.532-.335.504-.75-.065-.404-.553-2.535-2.343-4.735-3.979-7.316-5.438-17.322-16.099-22.624-24.105-2.881-4.351-5.184-8.135-5.117-8.41.066-.275-.831-1.512-1.994-2.75-1.162-1.237-1.789-2.25-1.391-2.25s-.537-1.912-2.076-4.25-2.937-4.893-3.108-5.68c-.17-.786-1.125-2.586-2.122-4-1.9-2.696-7.44-13.135-7.521-14.174-.156-1.992-10.475-13.214-16.088-17.495-1.731-1.32-3.861-2.401-4.732-2.401s-2.204-.62-2.962-1.378-2.928-1.745-4.822-2.194c-1.893-.448-3.78-.897-4.193-.997s-.862-.296-1-.437c-.569-.582-18.26-.797-19.173-.233-.546.338-1.976.719-3.179.847s-4.034 1.399-6.292 2.825-4.106 2.344-4.106 2.04c0-.612-1.645.676-6.055 4.743-1.62 1.494-2.945 3.182-2.945 3.75s-.353 1.034-.784 1.034-1.556 1.305-2.498 2.9c-1.284 2.174-2.942 3.194-6.627 4.078-2.702.648-8.214 2.916-12.247 5.038-6.076 3.197-6.992 3.986-5.339 4.598 1.097.407 2.22 1.007 2.495 1.333.505.599 6.053 3.349 7.023 3.482.288.039 1.611 1.084 2.939 2.321s2.726 2.25 3.106 2.25c1.142 0 8.875 10.723 8.212 11.387-.337.337-.147.613.423.613.947 0 2.588 4.662 3.872 11 .278 1.375.712 8.8.965 16.5.827 25.284 1.989 41.411 4.07 56.5.265 1.925.62 4.625.789 6 .667 5.446 2.334 15.359 2.649 15.75.111.138.315 1.15.452 2.25.138 1.1.363 2.225.5 2.5.138.275.328 1.288.424 2.25.096.963.509 2.727.917 3.92a47 47 0 0 1 1.201 4.25c.252 1.144.719 3.093 1.037 4.33s.723 3.207.898 4.376.852 3.12 1.502 4.335c.651 1.216.961 2.432.69 2.704-.65.65 2.265 9.29 3.984 11.808.741 1.084 1.347 2.729 1.347 3.655s.868 3.413 1.929 5.527c1.062 2.115 4.396 9.02 7.409 15.345 21.88 45.919 57.797 80.702 97.974 94.878 16.651 5.876 26.97 7.472 48.688 7.534 21.358.06 28.914-1.016 45.196-6.441 40.252-13.41 79.994-50.413 101.098-94.131 10.859-22.495 24.154-34.446 60.041-53.971l19.393-10.552c3.425-1.864 10.625-6.674 16-10.689 44.098-32.938 71.257-75.501 77.339-121.203 1.74-13.077.718-41.455-1.97-54.724-15.299-75.508-69.996-118-157.467-122.331-13.436-.665-13.839-.627-12.882 1.222M178.596 437c.789 0 2.324 1.463 3.413 3.25 5.611 9.212-3.478 18.4-12.672 12.809-5.853-3.56-4.797-13.545 1.667-15.754 1.923-.657 4.095-.995 4.828-.75.732.245 1.976.445 2.764.445"/><path fill="#EC008CFF" stroke="#EC008CFF" d="M314 137.625C256.793 144.877 210.155 188.784 193.573 251l-2.265 8.5-16.404.712c-28.524 1.239-46.878 4.202-67.163 10.844-51.26 16.784-86.346 54.848-100.23 108.738-9.121 35.402-6.931 68.164 6.834 102.207 16.19 40.045 52.739 77.938 96.27 99.813 8.711 4.377 28.261 15.283 39.885 22.25l4 2.397-1.752-2.48c-3.344-4.734-10.515-19.531-14.044-28.981-8.709-23.315-17.159-68.967-19.251-104-.345-5.775-.774-11.463-.954-12.641-.18-1.177-.616-13.552-.97-27.5-.682-26.848-1.42-32.635-5.087-39.859-4.823-9.502-13.301-17.521-21.187-20.042-2.065-.66-4.149-1.562-4.631-2.004-.945-.869 12.332-7.867 18.876-9.95 2.815-.895 5.974-3.4 10.662-8.452 11.201-12.072 23.226-16.874 38.58-15.407 15.167 1.449 30.913 12.162 39.864 27.124 13.113 21.918 28.898 44.206 38.111 53.811 24.421 25.461 49.992 38.451 82.769 42.046 24.359 2.672 52.175-3.465 74.014-16.332 16.679-9.826 34.535-26.426 46.007-42.771 31.3-44.593 39.482-105.71 21.357-159.523-17.287-51.323-56.318-88.76-103.864-99.621-8.326-1.902-31.3-3.23-39-2.254"/><path fill="#00929EFF" stroke="#00929EFF" d="M2415 313.955v85.954l-3.25.505c-1.787.278-6.4.792-10.25 1.144-9.656.881-27.252 5.459-37.832 9.842-42.865 17.756-73.268 53.792-81.229 96.277-2.108 11.247-2.101 31.435.014 42.723 4.82 25.723 17.443 48.611 37.444 67.891 54.932 52.955 148.764 52.438 202.909-1.117 18.662-18.458 30.545-39.764 35.793-64.174 2.453-11.412 2.492-37.264.071-47.838-8.71-38.051-32.607-68.885-67.961-87.693l-8.709-4.633V342h23v71h68V228h-68v56h-23v-56h-67v85.955m22.819 144.648c19.607 4.345 38.478 19.338 47.615 37.83 20.328 41.139-1.799 90.83-45.635 102.487-15.471 4.114-29.104 3.502-44.128-1.981-31.551-11.514-51.828-45.311-46.748-77.916 2.651-17.008 8.535-28.468 21.077-41.05 18.348-18.405 41.864-25.122 67.819-19.37M1308 500.042c0 89.953-.082 88.767 7.189 103.902 7.542 15.701 23.269 28.558 41.311 33.773 5.531 1.599 16.184 1.759 136.25 2.044l130.25.31V420h-315v80.042m247 29.991v52.033l-82.75-.283c-74.911-.256-83.034-.44-85.75-1.944-3.363-1.861-7.698-6.252-9.349-9.469-.74-1.442-1.112-16.474-1.152-46.5-.032-24.404-.045-44.707-.028-45.12s40.304-.75 89.529-.75h89.5v52.033M1017.5 401.098c-15.647 1.628-33.07 6.41-47.293 12.981-19.598 9.055-41.334 26.822-53.524 43.753-24.97 34.68-30.209 77.704-14.234 116.889 13.859 33.992 44.068 61.726 81.323 74.661 17.116 5.942 30.058 8.033 49.728 8.033 19.648 0 32.568-2.084 49.728-8.021 27.974-9.677 53.638-28.93 68.819-51.625 15.15-22.65 21.33-42.575 21.33-68.769 0-32.863-11.317-60.556-34.57-84.592-5.033-5.203-12.336-11.873-16.229-14.823-28.976-21.96-67.48-32.398-105.078-28.487m23.534 55.896c25.754 2.952 46.224 17.38 57.469 40.506 12.163 25.013 9.216 53.565-7.856 76.131-9.182 12.138-24.891 22.302-40.147 25.975-9.144 2.202-24.857 2.203-33.972.003-42.59-10.28-66.605-56.954-50.201-97.566 7.734-19.149 23.107-33.962 42.647-41.093 4.569-1.667 11.506-3.405 15.416-3.861s7.335-.884 7.61-.951 4.341.319 9.034.856M1756.223 504.75l.277 84.75 2.623 6.742c6.239 16.036 16.882 28.423 30.491 35.487 16.133 8.375.059 7.658 179.636 8.013l159.75.316V582l-143.25-.024c-94.837-.017-144.764-.374-147.73-1.057-5.89-1.357-10.796-5.214-13.107-10.303-1.734-3.819-1.871-7.31-1.891-48.366L1823 478h306v-58h-373.054l.277 84.75M1285 303v81l59.75-.013c84.14-.018 118.826-1.628 153.75-7.134 15.878-2.504 38.158-8 48.373-11.934 4.17-1.605 7.929-2.919 8.354-2.919s.773 6.3.773 14v14h67V280h58v-58h-125v81.11l-5.571 2.464c-13.309 5.886-39.477 11.926-66.429 15.333-25.872 3.27-48.583 4.392-91 4.495l-40.5.098-.259-51.75-.259-51.75H1285v81M1928 203.125c-40.378 4.658-75.691 30.414-89.942 65.599-5.106 12.608-6.558 20.529-6.558 35.776 0 10.484.479 15.884 1.907 21.5 6.934 27.271 23.837 49.651 48.642 64.407 45.181 26.875 105.234 19.817 141.954-16.685 9.307-9.252 14.959-17.244 20.419-28.87 6.57-13.994 8.908-24.582 8.908-40.352s-2.338-26.358-8.908-40.352c-5.46-11.626-11.112-19.618-20.419-28.87-24.587-24.441-60.011-36.305-96.003-32.153m27.876 59.431c10.974 3.259 21.914 13.262 27.28 24.944 1.984 4.32 2.3 6.632 2.32 17 .023 11.588-.09 12.233-3.304 18.806-8.457 17.297-27.831 27.725-46.057 24.79-18.927-3.048-33.756-17.565-37.236-36.45-3.377-18.327 6.536-37.8 23.516-46.192 11.265-5.567 21.508-6.454 33.481-2.898"/><path fill="#00929EFF" stroke="#00929EFF" d="M2250 213.5V228h-77v52h47.014l-6.101 7.25c-7.508 8.923-13.08 18.735-16.608 29.25-2.404 7.164-2.691 9.514-2.745 22.5-.052 12.477.265 15.546 2.269 22 9.618 30.978 34.898 52.798 69.671 60.138 10.205 2.154 30.428 1.46 41.511-1.426 41.744-10.867 68.941-45.203 66.67-84.171-.322-5.523-1.306-12.741-2.187-16.041-2.585-9.686-9.89-23.299-17.037-31.75l-6.554-7.75H2394v-52h-76v-29h-68v14.5m45.572 96.171c6.774 2.298 16.459 11.983 18.757 18.757 2.136 6.3 2.136 15.844 0 22.144-2.385 7.031-11.991 16.496-19.155 18.872-7.23 2.399-17.99 1.835-24.369-1.278-5.997-2.926-12.051-8.983-14.964-14.971-2.765-5.682-3.619-16.344-1.824-22.757 2.443-8.724 10.85-17.664 19.645-20.889 5.314-1.949 15.977-1.89 21.91.122"/><path fill="#FFFFFFFF" stroke="#FFFFFFFF" d="M462.01 253c-.002.275.913 5 2.034 10.5 2.666 13.087 3.705 41.424 2.02 55.121-6.882 55.96-37.294 103.391-80.919 126.205C366.306 454.678 348.575 459 327 459c-26.416 0-47.98-6.616-70.844-21.735-9.323-6.165-24.701-20.39-32.068-29.665-5.625-7.082-20.343-29.107-28.11-42.066-10.073-16.808-23.197-26.783-38.94-29.596-15.569-2.783-32.492 4.017-42.429 17.047-2.933 3.846-4.814 5.184-9.866 7.013-3.434 1.243-8.896 3.592-12.138 5.219l-5.896 2.959 6.955 3.364c12.335 5.966 20.689 17.101 23.258 30.996.593 3.207 1.078 12.89 1.078 21.517v15.687l7.25-3.736c3.988-2.055 9.649-4.573 12.581-5.597 4.168-1.455 6.077-2.875 8.746-6.512 4.174-5.686 8.659-9.193 16.188-12.659 8.141-3.749 21.288-4.326 31.042-1.363 13.687 4.157 24.796 13.985 32.36 28.627 15.077 29.188 24.175 42.824 35.911 53.818 14.311 13.406 32.064 23.285 49.993 27.819 7.173 1.814 10.285 2.032 22.866 1.598 15.796-.544 23.853-2.194 37.761-7.734 24.655-9.821 51.103-32.329 68.744-58.501 7.43-11.024 19.683-36.683 24.832-52 10.099-30.043 13.174-49.009 13.136-81-.028-23.179-.996-33.073-5.012-51.262-1.357-6.144-2.146-7.709-5.125-10.164-1.936-1.596-4.362-4.178-5.39-5.738s-1.871-2.611-1.873-2.336M148.58 364.885c4.512 2.752 5.958 6.891 4.025 11.518-2.525 6.044-10.798 7.832-15.319 3.311-4.356-4.355-2.739-12.746 2.93-15.209 4.28-1.859 4.723-1.839 8.364.38"/><path fill="#00929EFF" stroke="#00929EFF" d="M1030 251v29h86.053l-.276 14.75-.277 14.75-42.75.261-42.75.26V368h86v32h67V222h-153v29M810 250.992v28.992l57.045.258 57.045.258-5.795 9.455c-7.07 11.535-25.15 30.351-36.295 37.773-19.809 13.193-46.967 22.253-66.75 22.268L810 350v59.275000000000006l8.75-.667c30.551-2.33 51.849-8.187 77.25-21.243 27.435-14.101 51.865-36.01 69.33-62.177 18.479-27.685 28.277-57.528 31.17-94.938l.637-8.25H810v28.992"/><path fill="#FFFFFFFF" stroke="#FFFFFFFF" d="M118.45 444.75c.26 2.063.734 9.15 1.053 15.75 1.425 29.5 6.699 66.924 12.902 91.553 7.102 28.196 18.518 52.6 26.842 57.381 1.789 1.027 5.136 3.381 7.438 5.231l4.185 3.363-2.967-8.13c-10.923-29.93-16.831-67.351-18.455-116.898-.316-9.625-1.056-19.525-1.644-22-2.759-11.6-11.479-22.336-22.3-27.455-7.12-3.368-7.621-3.283-7.054 1.205"/><path fill="#00939F40" stroke="#00939F40" d="M1307.461 420.247c-.263.689-.359 36.578-.213 79.753l.264 78.5.244-79.25L1308 420h315l.248 110 .248 110 .002-110.25.002-110.25-157.78-.253c-125.698-.202-157.878.002-158.259 1M1029.455 222.257c-.268.698-.367 14.088-.221 29.756l.266 28.487 42.75-.006 42.75-.005-42.5-.245L1030 280v-58h153v178l-34 .243-34 .243 34.25.007 34.25.007v-179l-76.779-.256c-61.302-.205-76.877-.001-77.266 1.013M1823.456 479.255c-.265.69-.358 17.452-.206 37.25l.276 35.995.237-36.747.237-36.747 153.25-.256 153.25-.256-153.281-.247c-122.198-.197-153.379.007-153.763 1.008"/><path fill="#ED1C24FF" stroke="#ED1C24FF" d="M140.5 364.9c-6.047 3.535-7.058 9.388-2.423 14.023 4.738 4.738 10.575 3.606 14.109-2.738 1.719-3.087 1.736-3.546.253-6.673-.914-1.926-3.01-4.03-4.917-4.935-3.894-1.848-3.259-1.877-7.022.323"/><path fill="#FFFFFFFF" stroke="#FFFFFFFF" d="M168.636 439.636c-6.686 6.687.059 17.27 9.105 14.285 6.392-2.11 7.844-10.742 2.512-14.937-3.605-2.835-8.398-2.566-11.617.652"/><path fill="#00939F40" stroke="#00939F40" d="M1284.46 222.25c-.262.688-.358 37.475-.212 81.75l.264 80.5.244-81.237.244-81.237 34.25-.276 34.25-.277-34.281-.237c-26.681-.184-34.388.041-34.759 1.014M1623.241 335.25l.242 55.25.267-54.735.267-54.735 29.242-.281 29.241-.28-29.75-.235L1623 280l.241 55.25M1029.477 338.5l.023 30 42.75-.006 42.75-.005-42.485-.245-42.485-.244-.288-29.75-.288-29.75.023 30M865.75 280.984c31.488.284 57.25.179 57.25-.234 0-.412-25.762-.645-57.25-.516l-57.25.234 57.25.516"/><path fill="#00929D60" stroke="#00929D60" d="M2482.455 343.256c-.265.691-.357 16.779-.205 35.75l.277 34.494.237-35.217.236-35.217 11.25-.319 11.25-.319-11.281-.214c-8.295-.157-11.409.119-11.764 1.042"/></svg>