<svg xmlns="http://www.w3.org/2000/svg" xml:space="preserve" width="724.83075" height="200" viewBox="0 0 724.83075 200"><path d="M158.911 38.757c-.205-.108-.409-.22-.617-.328a95.304 95.304 0 0 0-17.502-7.04c-4.134-1.206-8.129-2.29-12.075-2.75l-.142-.016a89.672 89.672 0 0 0-15.653-9.706l19.853-23.98c14.977 10.552 27.01 25.001 34.625 41.873a102.893 102.893 0 0 0-8.489 1.947" style="fill:#a7a5a6;fill-opacity:1;fill-rule:nonzero;stroke:none;stroke-width:1.50857" transform="matrix(1.33333 0 0 -1.33333 -77.404 192.828)"/><path d="M144.248 43.963c-9.715 4.275-18.777 9.997-26.563 16.932-1.264 1.062-3.15 2.77-5.426 5.197-14.752 5.53-27.341 14.297-32.612 18.598L58.053 44.346s29.972-20.393 70.523-15.724a94.728 94.728 0 0 1 15.672 15.341" style="fill:#4ebde6;fill-opacity:1;fill-rule:nonzero;stroke:none;stroke-width:1.50857" transform="matrix(1.33333 0 0 -1.33333 -77.404 192.828)"/><path d="M173.86 55.997a102.836 102.836 0 0 1 2.401 16.594c-.467-.306-.94-.608-1.416-.906a76.538 76.538 0 0 0-10.797-5.647c-.303-.128-.614-.249-.922-.373a88.37 88.37 0 0 1 10.734-9.668M140.792 31.39a95.261 95.261 0 0 1 17.502 7.038c.209.109.412.22.617.33a106.087 106.087 0 0 0-14.663 5.205 94.727 94.727 0 0 0-15.672-15.34l.141.016c3.947.459 7.941 1.543 12.075 2.75M133.858 61.244c7.695-.754 14.937.013 21.659 1.836.356.096.707.205 1.06.308 1.02 2.1 1.974 4.243 2.856 6.426-15.84 18.833-26.017 45.281-27.657 74.807l-49.28-18.258c5.64-23.873 14.437-40.222 22.045-50.824a81.707 81.707 0 0 1 3.892-5.078 86.706 86.706 0 0 1 3.826-4.369c6.903-2.587 14.277-4.47 21.6-4.848z" style="fill:#1890ce;fill-opacity:1;fill-rule:nonzero;stroke:none;stroke-width:1.50857" transform="matrix(1.33333 0 0 -1.33333 -77.404 192.828)"/><path d="M163.127 65.666a95.666 95.666 0 0 0-3.693 4.148 103.614 103.614 0 0 0-2.856-6.426 66.66 66.66 0 0 1 6.549 2.278M170.05 45.75a89.858 89.858 0 0 0-11.139-6.991c2.808-.771 5.641-1.421 8.49-1.95a102.253 102.253 0 0 1 3.85 9.858c-.4-.305-.793-.614-1.202-.916" style="fill:#1575bc;fill-opacity:1;fill-rule:nonzero;stroke:none;stroke-width:1.50857" transform="matrix(1.33333 0 0 -1.33333 -77.404 192.828)"/><path d="M171.25 46.666a90.41 90.41 0 0 1 7.184 6.097 80.327 80.327 0 0 0-4.574 3.234 102.083 102.083 0 0 0-2.61-9.33M117.685 60.896c7.786-6.935 16.848-12.657 26.563-16.933a100.644 100.644 0 0 1 12.33 19.425c-.355-.103-.705-.212-1.06-.308-6.723-1.822-13.964-2.59-21.658-1.836-7.322.379-14.698 2.26-21.601 4.849 2.276-2.428 4.162-4.135 5.426-5.197" style="fill:#1575bc;fill-opacity:1;fill-rule:nonzero;stroke:none;stroke-width:1.50857" transform="matrix(1.33333 0 0 -1.33333 -77.404 192.828)"/><path d="M144.248 43.965a106.101 106.101 0 0 1 14.663-5.208 90.221 90.221 0 0 1 11.138 6.994c.409.301.801.61 1.2.915a101.605 101.605 0 0 1 2.61 9.33 88.369 88.369 0 0 0-10.733 9.67 66.66 66.66 0 0 0-6.548-2.279 100.679 100.679 0 0 0-12.33-19.422" style="fill:#215698;fill-opacity:1;fill-rule:nonzero;stroke:none;stroke-width:1.50857" transform="matrix(1.33333 0 0 -1.33333 -77.404 192.828)"/><path d="M205.694 101.94c-5.232-7.689-15.397-20.172-29.433-29.349a102.835 102.835 0 0 0-2.401-16.594 80.332 80.332 0 0 1 4.574-3.234h.006c18.548 17.507 25.854 39.13 27.261 48.716.014.131.051.312-.008.462" style="fill:#4ebde6;fill-opacity:1;fill-rule:nonzero;stroke:none;stroke-width:1.50857" transform="matrix(1.33333 0 0 -1.33333 -77.404 192.828)"/><path d="M166.551 122.925c.474-4.063.721-8.198.721-12.393 0-14.414-2.777-28.213-7.838-40.718a95.667 95.667 0 0 1 3.693-4.148c.307.123.618.244.921.372a76.538 76.538 0 0 1 10.797 5.647c.477.299.949.6 1.417.907.132 2.145.2 4.308.2 6.486 0 15.563-3.462 30.314-9.648 43.536-.06.125-.157.264-.263.31" style="fill:#a7a5a6;fill-opacity:1;fill-rule:nonzero;stroke:none;stroke-width:1.50857" transform="matrix(1.33333 0 0 -1.33333 -77.404 192.828)"/><path d="M211.719 40.952c-.178.013-.353.03-.531.047-.14.013-.282.024-.423.039-1.988.21-3.953.504-5.894.875-.461.089-.918.194-1.377.29-7.695 1.706-14.132 4.537-17.374 6.126-.385.193-.77.378-1.153.579a77.386 77.386 0 0 0-6.533 3.854 90.41 90.41 0 0 0-7.184-6.096 102.25 102.25 0 0 0-3.85-9.857c5.713-1.06 11.482-1.629 17.202-1.655l.032-.001.293-.002c.28 0 .558.006.837.008.355.003.71.006 1.064.012l.556.012a66.872 66.872 0 0 1 1.664.05c.184.006.368.015.552.022l.55.025.55.028.55.03.545.034.546.036c.181.013.364.025.545.039l.543.042.542.044.54.047.538.05c.18.016.36.034.537.052l.536.055.535.058.533.06c.178.02.354.042.53.063.179.022.355.043.532.066l.528.068.528.07.525.075a62.734 62.734 0 0 1 1.047.154l.52.081.52.083c.173.029.345.057.517.088.172.028.344.058.516.089a51.64 51.64 0 0 1 1.027.184l.511.096c.17.032.34.065.51.1l.507.1.507.103.504.108a59.243 59.243 0 0 1 1.003.219l.5.114.496.115c.166.039.332.078.496.119a58.381 58.381 0 0 1 .985.244c.163.04.327.083.49.125l.488.127.487.131a57.835 57.835 0 0 1 .965.269c.162.044.322.09.482.136l.478.14c.158.047.318.093.477.142a57.029 57.029 0 0 1 .947.29l.47.149.468.15.468.154.465.156.461.157c.154.052.308.107.46.161l.062.021c.207.079.504.21.748.383a47.18 47.18 0 0 0-6.696.067" style="fill:#1890ce;fill-opacity:1;fill-rule:nonzero;stroke:none;stroke-width:1.50857" transform="matrix(1.33333 0 0 -1.33333 -77.404 192.828)"/><path d="M595.723.047h3.616V3.67h-3.616zm-156.334 0h3.622V7.96h6.099v2.85h-6.1v4.453h6.41V18.1H439.39zm12.7 0h3.458v13.325h-3.458zm0 15.751h3.458v3.316h-3.458zm-43.61-7.784c.15 1.788 1.141 3.135 3.081 3.135 1.933 0 2.714-1.449 2.812-3.135zm2.869 5.67c-4.141 0-6.181-3.184-6.181-7.038 0-4.375 2.556-6.911 6.962-6.911 1.865 0 3.307.36 4.576 1.068V3.62c-1.292-.727-2.74-1.35-4.424-1.35-2.146 0-3.652 1.214-3.803 3.364h9.204c0 4.658-1.392 8.05-6.334 8.05m-12.44 2.113h3.47v3.316h-3.47zm24.26-6.128c0 1.14 1.116 1.479 2.045 1.479 1.27 0 2.042-.216 3.103-.575l.235 2.616c-1.086.23-2.145.495-3.777.495-2.713 0-5.227-1.274-5.227-4.146 0-4.812 6.023-3.028 6.023-5.637 0-1.292-1.389-1.631-2.278-1.631-1.184 0-2.317.34-3.407.88l-.201-2.843c1.261-.34 2.604-.573 3.927-.573 2.813 0 5.584 1.241 5.584 4.352 0 4.81-6.026 3.456-6.026 5.583m43.74 4.015c-1.808 0-3.28-.598-4.373-2.129h-.053v1.816H459.2V.047h3.472v6.514c0 1.714.541 4.43 3.053 4.43 2.219 0 2.248-2.2 2.248-3.832V.047h3.462v8.409c0 2.996-1.371 5.229-4.524 5.229m15.185-10.22c-.543-.725-1.377-1.194-2.438-1.194-1.242 0-2.193.49-2.193 1.63 0 2.045 2.3 2.307 3.85 2.307h1.5c0-1.038-.15-1.994-.72-2.744m3.878 2.9v1.701c0 3.93-1.68 5.62-5.748 5.62-1.47 0-3.278-.39-4.627-1.014l.103-2.97c1.163.873 2.645 1.448 4.117 1.448 2.041 0 2.997-.729 2.997-2.874H480.9c-1.447 0-3.151-.133-4.47-.776-1.32-.645-2.28-1.81-2.28-3.807 0-2.536 2.304-3.957 4.656-3.957 1.578 0 3.311.834 4.108 2.308h.059c.026-.416.026-1.296.154-1.996h3.047a65.04 65.04 0 0 0-.146 2.972 98.62 98.62 0 0 0-.056 3.345m87.09 3.982h-.053v3.026h-3.078V.047h3.465V4.94c0 1.915 0 5.433 2.818 5.433.625 0 1.251-.106 1.554-.28v3.478c-.363.115-.722.115-1.062.115-2.065 0-3.49-2.097-3.645-3.339m-12.908-7.92c-2.639 0-3.34 2.406-3.34 4.609 0 1.988 1.092 3.955 3.34 3.955 2.276 0 3.36-1.92 3.36-3.955 0-2.227-.692-4.609-3.36-4.609m0 11.259c-3.927 0-6.96-2.672-6.96-7.071 0-3.821 2.567-6.88 6.96-6.88 4.427 0 6.987 3.059 6.987 6.88 0 4.399-3.023 7.07-6.987 7.07m26.306-11.258c-2.31 0-3.05 2.433-3.05 4.328 0 1.859.875 4.236 3.098 4.236 2.257 0 2.879-2.46 2.879-4.236 0-1.843-.65-4.328-2.927-4.328m.956 11.259c-2.044 0-3.36-.906-4.131-2.203h-.053v1.89h-3.32V-5.379h3.465v6.951h.052c1.224-1.477 2.432-1.837 3.908-1.837 4.17 0 5.672 3.369 5.672 7.02 0 3.665-1.501 6.93-5.593 6.93m-68.282-5.671c.154 1.788 1.132 3.135 3.08 3.135 1.936 0 2.71-1.449 2.82-3.135zm2.87 5.67c-4.142 0-6.181-3.184-6.181-7.038 0-4.375 2.561-6.911 6.95-6.911 1.87 0 3.319.36 4.586 1.068V3.62c-1.299-.727-2.75-1.35-4.428-1.35-2.143 0-3.643 1.214-3.797 3.364h9.205c0 4.658-1.396 8.05-6.335 8.05m-24.908 0c-1.812 0-3.285-.598-4.368-2.129h-.054v1.816h-3.29V.047h3.472v6.514c0 1.714.539 4.43 3.046 4.43 2.228 0 2.256-2.2 2.256-3.832V.047h3.46v8.409c0 2.996-1.367 5.229-4.522 5.229M398.908.047h3.47v13.325h-3.47zm112.648 2.38c-2.43 0-3.606 1.892-3.606 4.353 0 2.495 1.385 4.21 3.523 4.21 1.068 0 1.733-.208 2.352-.49l.315 2.737c-.958.29-1.967.448-3.36.448-4.17 0-6.44-3.054-6.44-6.905 0-4.069 2.197-7.045 6.565-7.045 1.422 0 2.452.136 3.467.44l-.155 2.879c-.598-.261-1.676-.628-2.661-.628m36.023.151c-3.849 0-6.119 2.777-6.119 6.446 0 3.696 2.32 6.544 6.048 6.544 1.293 0 2.54-.18 3.896-.953l.272 3.053c-1.329.513-2.901.751-4.097.751-6.119 0-9.907-3.47-9.907-9.648 0-6.107 4.069-9.035 9.907-9.035 1.382 0 2.798.264 4.123.573l-.156 3.026c-.86-.44-2.537-.757-3.967-.757m-287.05-.15c-2.642 0-3.334 2.405-3.334 4.608 0 1.988 1.083 3.955 3.334 3.955 2.276 0 3.364-1.92 3.364-3.955 0-2.227-.696-4.609-3.364-4.609m0 11.259c-3.932 0-6.958-2.672-6.958-7.071 0-3.821 2.557-6.88 6.958-6.88 4.421 0 6.984 3.059 6.984 6.88 0 4.399-3.024 7.07-6.984 7.07m40.769-10.22c-.54-.724-1.37-1.193-2.43-1.193-1.242 0-2.197.49-2.197 1.63 0 2.045 2.296 2.307 3.851 2.307h1.501c0-1.038-.154-1.994-.725-2.744m3.878 2.9v1.701c0 3.93-1.683 5.62-5.741 5.62-1.476 0-3.286-.39-4.627-1.014l.102-2.97c1.159.873 2.639 1.448 4.114 1.448 2.043 0 3-.729 3-2.874h-1.91c-1.455 0-3.161-.133-4.483-.776-1.324-.645-2.276-1.81-2.276-3.807 0-2.536 2.308-3.957 4.658-3.957 1.58 0 3.312.834 4.116 2.308h.045c.029-.416.029-1.296.159-1.996h3.054a59.288 59.288 0 0 0-.158 2.972c-.02.993-.053 1.999-.053 3.345m13.782 6.693c0 1.967 1.609 2.51 2.85 2.51 1.264 0 2.538-.28 3.666-.777l.333 2.98c-1.312.44-2.765.648-4.311.648-3.185 0-6.317-1.48-6.317-5.51 0-5.979 7.916-4.558 7.916-7.997 0-1.626-1.84-2.334-3.207-2.334-1.418 0-2.842.442-4.084 1.115l-.335-3.254c1.783-.44 2.654-.703 4.634-.703 3.64 0 6.77 1.496 6.77 5.46 0 6.05-7.915 4.733-7.915 7.862m-36.67-5.043c.154 1.788 1.136 3.135 3.078 3.135 1.937 0 2.721-1.449 2.818-3.135zm2.871 5.67c-4.143 0-6.184-3.184-6.184-7.038 0-4.375 2.566-6.911 6.96-6.911 1.861 0 3.31.36 4.573 1.068V3.62c-1.29-.727-2.736-1.35-4.426-1.35-2.142 0-3.64 1.214-3.794 3.364h9.202c0 4.658-1.393 8.05-6.331 8.05m-31.82 4.415h-4.452l-6.523-7.754V18.1h-3.616V.047h3.616v8.386h.059l6.494-8.386h4.726l-7.726 9.54Zm78.97-10.086c.148 1.788 1.132 3.135 3.072 3.135 1.938 0 2.717-1.449 2.822-3.135zm2.862 5.67c-4.135 0-6.175-3.184-6.175-7.038 0-4.375 2.557-6.911 6.96-6.911 1.86 0 3.306.36 4.572 1.068V3.62c-1.287-.727-2.744-1.35-4.422-1.35-2.146 0-3.649 1.214-3.797 3.364h9.202c0 4.658-1.392 8.05-6.34 8.05m-61.734-3.339h-.057v3.026h-3.074V.047h3.462V4.94c0 1.915 0 5.433 2.825 5.433.62 0 1.242-.106 1.547-.28v3.478c-.358.115-.723.115-1.056.115-2.07 0-3.497-2.097-3.647-3.339m108.222 5.452h3.464v3.316h-3.464zm0-15.75h3.464v13.324h-3.464zm-6.936 10.298h-.053v3.026h-3.075V.047h3.464V4.94c0 1.915 0 5.433 2.823 5.433.62 0 1.238-.106 1.544-.28v3.478c-.359.115-.72.115-1.054.115-2.071 0-3.492-2.097-3.65-3.339m20.282-7.92c-1.32 0-1.628 1.06-1.628 2.2v6.203h3.068v2.543h-3.068v3.773l-3.468-1.109v-2.664h-2.565V10.83h2.565V4.055c0-2.634 1.5-4.32 4.215-4.32 1.04 0 1.831.104 2.561.312l-.105 2.746c-.358-.231-.955-.367-1.575-.367m-44.41 0c-2.436 0-3.6 1.893-3.6 4.354 0 2.495 1.378 4.21 3.515 4.21 1.068 0 1.74-.208 2.357-.49l.31 2.737c-.954.29-1.964.448-3.35.448-4.173 0-6.448-3.054-6.448-6.905 0-4.069 2.195-7.045 6.568-7.045 1.421 0 2.459.136 3.465.44l-.155 2.879c-.602-.261-1.68-.628-2.661-.628m13.889 4.428c0-1.715-.546-4.428-3.055-4.428-2.227 0-2.248 2.2-2.248 3.827v7.12h-3.47v-8.41c0-3.004 1.369-5.228 4.532-5.228 1.805 0 3.306.834 4.37 2.13h.043V.047h3.289v13.325h-3.461ZM496.568 51.821h25.243V39.286h-25.243zm-9.89-20.19h45.062v27.82h-45.062zM531.59 100.539h-44.727V92.91h34.742V74.435H480.174V66.8h56.828v7.634h-5.412zM236.881 74.972c0 4.032 2.81 8.199 8.2 8.199 5.402 0 8.217-4.167 8.217-8.199 0-4.04-2.815-8.205-8.218-8.205-5.39 0-8.199 4.165-8.199 8.205m26.159 0c0 6.178-3.986 11.746-10.257 14.286h10.7v7.644h-13.522v7.24h-9.913v-7.24H226.69v-7.644h10.696c-6.267-2.54-10.253-8.108-10.253-14.286 0-8.445 7.426-15.748 17.946-15.748 10.536 0 17.96 7.303 17.96 15.748M382.222 37.988c-6.232 0-12.905 2.644-12.905 6.579 0 3.932 6.673 6.575 12.905 6.575 6.242 0 12.927-2.643 12.927-6.575 0-3.935-6.685-6.58-12.927-6.58m0 20.608c-12.979 0-22.765-6.031-22.765-14.028 0-8 9.786-14.033 22.765-14.033 12.985 0 22.779 6.033 22.779 14.033 0 7.997-9.794 14.028-22.78 14.028M571.54 58.595c-2.3 0-4.496-.193-6.56-.549v5.823h13.134v-5.825c-2.067.358-4.27.551-6.575.551m0-20.607c-6.231 0-12.902 2.645-12.902 6.579 0 3.933 6.67 6.576 12.902 6.576 6.244 0 12.926-2.643 12.926-6.576 0-3.934-6.682-6.579-12.926-6.579m30.137 25.881v7.67h-60.248v-7.67h13.61v-9.451c-3.914-2.497-6.261-5.936-6.261-9.851 0-8 9.784-14.033 22.762-14.033 12.986 0 22.781 6.033 22.781 14.033 0 3.913-2.348 7.353-6.265 9.848v9.454zM571.54 95.858c6.011 0 12.712-2.57 12.712-6.256 0-3.69-6.7-6.261-12.713-6.261-6.002 0-12.69 2.57-12.69 6.26 0 3.688 6.688 6.257 12.69 6.257m.002-20.327c12.863 0 22.566 6.048 22.566 14.07 0 8.016-9.703 14.062-22.566 14.062-12.856 0-22.551-6.046-22.551-14.063 0-8.021 9.695-14.069 22.551-14.069M248.465 53.448h-9.943v-21.8h41.111v7.637h-31.168zM279.428 100.826h-9.87V50.32h9.87v25.756h9.721v7.626h-9.721zM342.84 100.539h-46.29v-7.63h36.432V76.242h-39.647v-7.629h21.226v-9.21h-18.699v-7.635h37.191V31.631h9.795v27.772h-18.404v9.21h23.047v7.629h-4.65zM354.05 62.9h56.349v7.629h-56.35ZM437.149 49.859h-9.896V31.63h45.219v7.629h-35.323zM437.127 54.116v14.497h25.26v-5.309h-13.634v-7.628h13.635v-7.714h9.875v52.84h-9.875V76.235h-9.78v24.305h-33.053V92.98h23.147V76.234h-26.075v-7.621h10.596V54.116ZM372.298 77.318c5.347 2.809 8.55 5.977 9.925 7.508 1.376-1.531 4.585-4.699 9.935-7.508 5.546-2.911 12.268-3.049 15.257-2.94v7.17c-1.74.128-3.35.353-4.84.664-6.033 1.26-10.079 3.925-12.752 7.31-1.189 1.652-1.377 2.791-1.407 3.38H407.156V100.54H357.294v-7.634h.002v-.005h18.739c-.03-.588-.218-1.727-1.407-3.378-2.674-3.386-6.719-6.052-12.753-7.312a37.157 37.157 0 0 0-4.89-.668V74.38c2.964-.112 9.736.012 15.313 2.939" style="fill:#30499a;fill-opacity:1;fill-rule:nonzero;stroke:none;stroke-width:1.50857" transform="matrix(1.33333 0 0 -1.33333 -77.404 192.828)"/></svg>