<svg xmlns="http://www.w3.org/2000/svg" width="453.22495mm" height="100mm" viewBox="0 0 453.22494 100"><path d="M-155.918 343.1a10.56 10.56 0 0 0-5.33 6.154l-16.991 51.076a10.58 10.58 0 0 0 .578 8.122 10.586 10.586 0 0 0 6.145 5.315l55.736 18.713a10.58 10.58 0 0 0 8.125-.578c2.537-1.281 4.438-3.452 5.325-6.148l16.996-51.07c1.857-5.56-1.172-11.6-6.729-13.456l-55.733-18.71c-2.709-.89-5.579-.69-8.122.582" style="fill:#fff;fill-opacity:1;fill-rule:nonzero;stroke:none;stroke-width:3.17876" transform="translate(178.79 -333.03)"/><path d="M-151.043 402.394h-3.837v-26.54h3.837zm22.369-10.229c-3.027 3.38-6.81 6.107-11.18 7.794l-2.518.98v-23.673l2.486.963c4.38 1.679 8.17 4.397 11.205 7.766 2.168-3.49 3.513-7.527 3.793-11.93.693-11.348-6.425-21.758-16.184-25.379l-8.045-2.683c-3.636-1.214-7.499.795-8.703 4.415l-17.048 51.115c-1.205 3.64.826 7.585 4.466 8.78l38.689 12.915a25.466 25.466 0 0 0 6.872-15.951 25.45 25.45 0 0 0-3.833-15.112" style="fill:#0099da;fill-opacity:1;fill-rule:nonzero;stroke:none;stroke-width:3.17876" transform="translate(178.79 -333.03)"/><path d="M-130.912 389.08a25.721 25.721 0 0 0-7.775-6.214v12.467a25.543 25.543 0 0 0 7.775-6.253" style="fill:#f15d22;fill-opacity:1;fill-rule:nonzero;stroke:none;stroke-width:3.17876" transform="translate(178.79 -333.03)"/><path d="m-102.704 402.304-4.794.023-9.857-13.281 10.013-13.268 4.835-.013-10.036 13.303zm9.409-37.662-35.5-11.86c4.761 5.214 7.682 12.143 7.692 19.744.013 6.008-1.857 11.745-5.124 16.555 3.277 4.793 5.171 10.528 5.175 16.536a29.26 29.26 0 0 1-6.866 18.888l13.34 4.457c3.637 1.201 7.493-.795 8.701-4.428l17.054-51.105c1.202-3.64-.836-7.582-4.472-8.787M-63.274 334.734h2.25v19.84h-2.25zM-46.601 348.765c.054-2.132-1.36-3.34-3.79-3.34h-5.13v6.875h5.08c2.603 0 3.767-1.319 3.84-3.535m-.731-8.865c0-1.796-1.135-2.836-3.284-2.836h-4.905v5.976h4.88c2.047 0 3.309-1.179 3.309-3.14m3.258 9.396c-.2 3.344-3.004 5.277-6.316 5.277h-7.43v-19.867h7.633c3.185 0 4.975 1.939 5.305 4.294.277 2.33-.858 4.012-2.272 4.966 1.313.705 3.232 2.387 3.08 5.33M-29.6 354.63l-7.352-9.289a307.314 307.314 0 0 1-2.654 2.61v6.621h-2.298v-19.839h2.298v9.851c2.35-2.355 5.963-6.287 8.592-9.88h2.906c-2.524 3.453-5 6.428-7.153 8.758l8.516 11.167zM-9.614 333.19h2.42v23.63h-2.42zm-14.549 19.52-1.812-1.586c6.358-3.17 8.653-9.425 8.92-13.023h-7.642v-2.254h10.42c-.02 5.585-3.166 13.427-9.886 16.863M10.902 351.607H.507v2.715h10.395ZM-1.88 356.55v-9.64H.507v2.523h10.395v-2.524h2.416v9.641zm2.534-20.274c-1.717 0-3.24 1.37-3.24 3.061 0 1.745 1.523 3.14 3.24 3.14 1.713 0 3.239-1.395 3.239-3.14 0-1.72-1.526-3.06-3.24-3.06m10.271 1.824v-4.911h2.42v12.568h-2.42v-5.4H6.31c-.483 2.74-2.972 4.536-5.655 4.536-2.972 0-5.728-2.2-5.728-5.5 0-3.28 2.708-5.48 5.728-5.48 2.584 0 4.978 1.64 5.585 4.187zM25.397 335.122c-3.334 0-5.534 1.288-5.534 3.033 0 1.774 2.318 2.927 5.51 2.927 3.264 0 5.584-1.1 5.584-2.87 0-1.774-2.225-3.09-5.56-3.09m-7.902 21.158v-6.71h2.416v4.453h14.018v2.257zm7.877-13.046c-5.194 0-8.093-2.098-8.093-5.05 0-2.9 2.874-5.153 8.093-5.153 5.27 0 8.1 2.225 8.1 5.152 0 2.953-2.804 5.051-8.1 5.051m-10.61 1.984H36.03v2.286H14.761ZM53.354 347.955v-6.418h-2.489v5.91h-2.272V333.59h2.272v5.506h2.49v-5.91h2.272v14.77zm-5.992 2.632c-3.337 0-5.632.75-5.632 2.257 0 1.478 2.27 2.311 5.632 2.311 3.262 0 5.51-.833 5.51-2.285 0-1.533-2.2-2.283-5.51-2.283m-5.73-8.535c-1.667 0-2.49.671-2.49 1.739 0 1.103.823 1.802 2.49 1.802 1.716 0 2.488-.699 2.488-1.802 0-1.068-.772-1.739-2.489-1.739m5.706 15.223c-5.318 0-8.243-1.907-8.243-4.46 0-2.549 2.973-4.294 8.29-4.294 5.341 0 8.218 1.825 8.218 4.377 0 2.55-2.925 4.377-8.265 4.377m-8.535-23.844h5.61v2.067h-5.61zm2.804 14.124c-2.925 0-4.857-1.558-4.857-3.786 0-2.203 1.932-3.681 4.882-3.681 2.998 0 4.86 1.478 4.86 3.703 0 2.206-1.885 3.764-4.885 3.764m-5.363-10.659h10.805v2.066H36.243ZM79.35 349.783H68.546v4.539H79.35zm-13.268-2.229h15.76v8.996h-15.76Zm-2.756-2.632v-2.257H78.53c.242-1.207.795-4.107.967-6.255h-13.73v-2.254h16.508c-.169 3.894-.989 7.25-1.281 8.51h3.604v2.256z" style="fill:#0056a3;fill-opacity:1;fill-rule:nonzero;stroke:none;stroke-width:3.17876" transform="translate(178.79 -333.03)"/><path d="M97.447 346.052h-5.365v2.416a20.015 20.015 0 0 1 2.657-.162c.992 0 1.885.054 2.708.162zm-2.708-11.011c-3.503 0-5.509 1.074-5.509 2.498 0 1.396 2.054 2.47 5.51 2.47 3.384 0 5.559-1.046 5.559-2.441 0-1.424-2.127-2.527-5.56-2.527m0 15.306c-3.433 0-5.725.886-5.725 2.39 0 1.45 2.292 2.387 5.725 2.387 3.385 0 5.706-.912 5.706-2.362 0-1.478-2.32-2.415-5.706-2.415m0-8.297c-5.388 0-8.144-1.853-8.144-4.482 0-2.578 2.756-4.514 8.144-4.514 5.417 0 8.173 1.961 8.173 4.54 0 2.603-2.756 4.456-8.173 4.456m-5.099 4.002h-5.53v-2.26h21.265v2.26H99.89v3.004c2.152.779 3.312 2.095 3.312 3.706 0 2.607-3.023 4.486-8.462 4.486-5.413 0-8.48-1.879-8.48-4.486 0-1.637 1.182-2.95 3.381-3.731zM104.887 353.329v-2.257h14.549c.388-2.283 1.45-9.292 1.548-12.458h-13.85v-2.257h16.507c0 3.84-.966 11.625-1.716 14.715h4.23v2.257zM141.711 352.227H130.86v2.2h10.852zm-13.293 4.323v-8.35h2.441v2.012h10.852V348.2h2.445v8.35zm0-13.827v-5.452H141.4v-1.558h-12.982v-1.986h15.544v5.451h-13.004v1.558h13.44v1.987zm18.516 3.865h-9.355v2.416h-2.584v-2.416h-9.33v-2.174h21.269zM49.767 367.46c-2.946 3.08-25.109 26.456-25.109 26.456s24.045 26.066 27.07 29.327H38.706c-1.22-1.395-21.815-25.125-21.815-25.125v25.15H7.54v-55.8h9.35v22.567s19.66-21.323 20.817-22.576zM57.8 407.594h21.059v15.7h7.473v-15.7h21.056v-5.82H57.8Zm44.696-16.339H70.168v-5.582h32.328v-5.67H70.168v-5.462h32.328v-5.67H62.692v28.055h39.804zm72.416 8.167H224.5v-5.824h-49.588zm32.185 18.077c-1.876 1.167-4.292 1.749-7.264 1.749-2.937 0-5.34-.582-7.222-1.749-1.863-1.185-2.772-2.622-2.781-4.409 0-1.79.921-3.283 2.79-4.523 1.886-1.256 4.28-1.885 7.213-1.885 2.966 0 5.382.63 7.26 1.885 1.882 1.24 2.779 2.734 2.791 4.523-.012 1.787-.909 3.224-2.787 4.41m5.197-12.741c-3.478-1.971-7.613-2.963-12.46-2.963-4.848 0-9.013.992-12.465 2.963-3.48 1.977-5.26 4.784-5.251 8.335-.01 3.506 1.774 6.284 5.251 8.236 3.452 1.955 7.623 2.937 12.464 2.93h.026c4.831 0 8.964-.979 12.435-2.93 3.474-1.952 5.245-4.73 5.238-8.236.006-3.551-1.764-6.358-5.238-8.335m-32.207-13.834c12.273-2.257 18.335-8.685 19.584-10.163 1.259 1.478 7.327 7.906 19.597 10.163l.118.022 3.878-5.15-.347-.047c-.025-.003-14.886-1.927-18.888-10.996h16.145v-5.903h-40.682v5.9h15.824c-4.002 9.072-18.882 10.98-18.882 10.999l-.346.047 3.875 5.153zm-44.1-5.96v-10.58l10.656.004v-5.519H118.64v5.519h10.179v10.458c0 9.314-5.865 17.213-13.962 19.896l-.308.105 3.967 4.173.124-.04c5.795-2.178 10.649-6.444 13.748-11.947 3.096 5.503 7.976 9.769 13.79 11.946l.12.041 3.955-4.18-.302-.098c-8.061-2.67-13.914-10.503-13.964-19.779m25.325-17.52h-7.47v55.809h7.47v-32.856h8.147v-5.518h-8.147zm81.608 36.914h-7.518v17.992h39.033v-5.369H242.92zm24.05-37.026.004 22.48h-8.297c.083-.248.146-.458.213-.677a39.534 39.534 0 0 0 1.507-10.808v-9.457h-26.93v5.455h19.291v5.334c0 .728-.066 1.647-.165 2.74a47.748 47.748 0 0 1-.36 2.66l-1.074 4.753h-21.11v5.817h14.693v9.457h7.47v-9.457h14.762v3.417h-10.932v5.519h10.929v3.92h7.463v-41.153ZM-63.274 423.336h9.364V367.47h-9.364zM-22.492 375.43c2.686.01 9.1.923 9.113 7.414.013 3.566-1.436 5.588-3.795 6.63-2.343 1.043-5.553 1.177-9.174 1.18h-5.267V375.43h9.123m-3.08 23.192c6.681.006 13.1 1.065 13.115 8.656.007 2.734-.938 4.937-2.972 6.218-2.031 1.28-5.099 1.85-9.377 1.85h-6.81v-16.724h6.044m-15.408-31.161v55.854h17.022c14.464-.029 21.301-5.13 21.32-15.35-.006-6.4-3.633-11.26-9.619-13.059l-.556-.165.534-.226c5.57-2.343 8.25-6.376 8.259-12.445-.02-9.542-6.523-14.58-19.706-14.61z" style="fill:#0056a3;fill-opacity:1;fill-rule:nonzero;stroke:none;stroke-width:3.17876" transform="translate(178.79 -333.03)"/></svg>